# Blender v2.91.0 OBJ File: ''
# www.blender.org
o slice_of_pizza
v 1.054618 -0.107074 0.628952
v 0.966503 -0.107074 -0.040349
v 1.029953 -0.045214 -0.070082
v 1.118068 -0.045214 0.628952
v 0.708163 -0.107074 -0.664038
v 0.771612 -0.045214 -0.693772
v 0.300802 -0.107074 -1.196718
v 0.342624 -0.045214 -1.239239
v 0.771493 -0.134200 0.011904
v 0.852728 -0.134200 0.628952
v 0.217908 -0.134200 0.628952
v 0.123885 -0.134200 0.156057
v 0.533321 -0.134200 -0.563094
v -0.050453 -0.134200 -0.225478
v 0.154446 -0.134200 -1.056855
v -0.330714 -0.134200 -0.571696
v 0.852728 0.045737 0.628952
v 0.771493 0.072873 0.011904
v 0.123885 0.087514 0.156057
v 0.217908 0.045737 0.628952
v 0.533321 0.072873 -0.563094
v -0.050453 0.087514 -0.225478
v 0.154446 0.042201 -1.056855
v -0.330714 0.042201 -0.571696
v 0.841761 0.170559 -0.017202
v 0.922998 0.170559 0.628952
v 1.054618 0.170559 0.628952
v 0.966503 0.170559 -0.040349
v 0.852728 -0.045214 0.628952
v 0.603591 0.170559 -0.592200
v 0.708163 0.170559 -0.664038
v 0.154446 -0.045214 -1.056855
v 0.206011 0.170559 -1.105705
v 0.300802 0.170559 -1.196718
v -1.531362 -0.045214 0.628952
v -1.254613 -0.045214 0.352204
v -1.254613 -0.134200 0.352203
v -1.531362 -0.134200 0.628952
v 0.217908 -0.045214 0.628952
v -1.124800 -0.134200 0.512241
v -1.129971 -0.134200 0.628952
v -1.164410 -0.134200 0.424293
v -1.129971 0.045737 0.628952
v -1.124800 0.071114 0.512241
v -1.531362 0.046460 0.628952
v -1.164411 0.071114 0.424293
v -1.254613 0.042201 0.352204
v -0.752713 -0.045214 -0.149697
v -0.752713 -0.134200 -0.149697
v -1.129971 -0.045214 0.628952
v -0.439942 -0.134200 0.314047
v -0.424336 -0.134200 0.628952
v -0.544312 -0.134200 0.066565
v -0.424336 0.045737 0.628952
v -0.439942 0.086977 0.314047
v -0.544312 0.086977 0.066565
v -0.752713 0.042201 -0.149697
v -0.424336 -0.045214 0.628952
v -0.330714 -0.045214 -0.571696
v 1.132460 0.066778 0.628952
v 1.044345 0.066778 -0.074764
v 0.786006 0.066778 -0.698453
v 0.358679 0.066778 -1.252026
vt 0.235459 0.921919
vt 0.174036 0.942445
vt 0.170892 0.937605
vt 0.308089 0.921716
vt 0.237894 0.932055
vt 0.369129 0.942410
vt 0.306343 0.932041
vt 0.416565 0.639284
vt 0.479466 0.688783
vt 0.434486 0.700786
vt 0.362644 0.665812
vt 0.398808 0.719959
vt 0.317427 0.705391
vt 0.367194 0.749118
vt 0.566333 0.238465
vt 0.601560 0.165862
vt 0.625091 0.222430
vt 0.505089 0.238072
vt 0.555346 0.175348
vt 0.446467 0.221158
vt 0.514372 0.173546
vt 0.232704 0.899846
vt 0.158930 0.930690
vt 0.174127 0.966466
vt 0.238031 0.960341
vt 0.238071 0.974560
vt 0.156800 0.949893
vt 0.305619 0.974186
vt 0.305518 0.960204
vt 0.311417 0.899025
vt 0.372121 0.937652
vt 0.386517 0.950323
vt 0.384827 0.931315
vt 0.368753 0.966266
vt 0.363934 0.958025
vt 0.515328 0.040894
vt 0.538133 0.008749
vt 0.537964 0.017021
vt 0.609700 0.162400
vt 0.641163 0.215632
vt 0.633225 0.218995
vt 0.476578 0.818885
vt 0.487856 0.818656
vt 0.490354 0.857332
vt 0.468350 0.823249
vt 0.461966 0.832389
vt 0.552572 0.047274
vt 0.542085 0.053056
vt 0.537840 0.022176
vt 0.532475 0.052595
vt 0.522582 0.045936
vt 0.508704 0.035691
vt 0.487504 0.103478
vt 0.479712 0.099656
vt 0.560220 0.042273
vt 0.567103 0.037280
vt 0.483463 0.750666
vt 0.453218 0.754130
vt 0.430022 0.765726
vt 0.410481 0.787153
vt 0.578452 0.108606
vt 0.522648 0.119080
vt 0.549055 0.119480
vt 0.495200 0.107193
vt 0.586576 0.104893
vt 0.594390 0.101252
vt 0.457113 0.153196
vt 0.472739 0.160201
vt 0.617620 0.158999
vt 0.464985 0.156732
vt 0.430810 0.214249
vt 0.235597 0.988623
vt 0.160833 0.968383
vt 0.178980 0.958212
vt 0.177327 0.949715
vt 0.308521 0.988026
vt 0.238831 0.945011
vt 0.382617 0.968001
vt 0.365571 0.949506
vt 0.305063 0.944827
vt 0.438700 0.217730
vt 0.475514 0.627616
vn 0.6951 -0.7130 -0.0915
vn 0.6118 -0.7493 -0.2534
vn 0.5279 -0.7410 -0.4151
vn 0.0000 -1.0000 -0.0000
vn 0.0000 0.9990 0.0439
vn 0.0207 0.9997 -0.0086
vn -0.0075 0.9984 -0.0563
vn 0.1331 -0.9909 -0.0175
vn 0.0000 1.0000 0.0000
vn 0.0000 0.0000 1.0000
vn 0.1241 -0.9909 -0.0514
vn 0.1067 -0.9909 -0.0816
vn -0.6909 0.0000 -0.7230
vn -0.7071 0.0000 -0.7071
vn 0.0018 0.9771 0.2125
vn -0.0536 0.9983 0.0241
vn -0.1661 0.9694 -0.1810
vn 0.0000 0.9772 0.2125
vn -0.0206 0.9997 0.0087
vn -0.0922 0.9890 -0.1159
vn 0.0000 0.9915 0.1299
vn -0.0008 1.0000 0.0004
vn -0.0528 0.9948 -0.0875
vn -0.7934 0.6005 0.0998
vn 0.7956 0.5967 -0.1047
vn -0.7290 0.6143 0.3020
vn 0.7145 0.6340 -0.2959
vn -0.7097 0.4810 0.5147
vn 0.6192 0.6230 -0.4780
vn 0.7852 -0.1263 -0.6062
vn 0.9156 -0.1335 -0.3793
vn 0.9842 -0.1265 -0.1241
vn -0.6918 0.0168 -0.7219
vn 0.6748 -0.7331 -0.0851
vn 0.5746 -0.6905 -0.4394
vn 0.0403 0.9960 0.0800
vn 0.0198 0.9998 -0.0091
vn -0.0720 0.9948 -0.0720
vn 0.1060 -0.9910 -0.0813
vn -0.6958 -0.0231 -0.7179
vn 0.0144 0.9915 0.1291
vn -0.0203 0.9998 0.0091
vn -0.1728 0.9697 -0.1728
vn 0.0225 0.9963 0.0835
vn -0.0009 1.0000 0.0004
vn -0.1043 0.9891 -0.1043
vn -0.8634 0.4861 0.1350
vn 0.7803 0.6177 -0.0977
vn 0.7144 0.6340 -0.2959
vn -0.6322 0.6006 0.4895
vn 0.6304 0.6085 -0.4821
vn -0.6926 0.0037 -0.7213
vn 0.7732 -0.1803 -0.6081
vn 0.9836 -0.1316 -0.1232
vn -0.6960 0.0000 -0.7181
s off
f 2/1/1 4/2/1 1/3/1
f 5/4/2 3/5/2 2/1/2
f 5/4/3 8/6/3 6/7/3
f 9/8/4 11/9/4 12/10/4
f 13/11/4 12/10/4 14/12/4
f 15/13/4 14/12/4 16/14/4
f 18/15/5 20/16/5 17/17/5
f 21/18/6 19/19/6 18/15/6
f 23/20/7 22/21/7 21/18/7
f 9/22/8 1/3/8 10/23/8
f 26/24/9 28/25/9 25/26/9
f 29/27/10 1/3/10 4/2/10
f 9/22/11 5/4/11 2/1/11
f 30/28/9 28/25/9 31/29/9
f 13/30/12 7/31/12 5/4/12
f 32/32/13 7/31/13 15/33/13
f 33/34/9 31/29/9 34/35/9
f 36/36/14 38/37/14 35/38/14
f 39/39/10 10/40/10 29/41/10
f 40/42/4 41/43/4 38/44/4
f 42/45/4 40/42/4 38/44/4
f 37/46/4 42/45/4 38/44/4
f 43/47/15 44/48/15 45/49/15
f 44/48/16 46/50/16 45/49/16
f 46/50/17 47/51/17 45/49/17
f 37/52/14 48/53/14 49/54/14
f 50/55/10 38/37/10 41/56/10
f 52/57/4 40/42/4 51/58/4
f 53/59/4 40/42/4 42/45/4
f 49/60/4 42/45/4 37/46/4
f 54/61/18 44/48/18 43/47/18
f 56/62/19 44/48/19 55/63/19
f 57/64/20 46/50/20 56/62/20
f 58/65/10 41/56/10 52/66/10
f 48/53/14 16/67/14 49/54/14
f 11/9/4 51/58/4 12/10/4
f 14/12/4 51/58/4 53/59/4
f 16/14/4 53/59/4 49/60/4
f 20/16/21 55/63/21 54/61/21
f 22/21/22 55/63/22 19/19/22
f 24/68/23 56/62/23 22/21/23
f 39/39/10 52/66/10 11/69/10
f 59/70/14 15/71/14 16/67/14
f 18/72/24 26/24/24 25/26/24
f 17/73/10 27/74/10 26/24/10
f 60/75/25 28/25/25 27/74/25
f 18/72/26 30/28/26 21/76/26
f 61/77/27 31/29/27 28/25/27
f 21/76/28 33/34/28 23/78/28
f 63/79/29 31/29/29 62/80/29
f 23/78/13 34/35/13 63/79/13
f 6/7/30 63/79/30 62/80/30
f 3/5/31 62/80/31 61/77/31
f 3/5/32 60/75/32 4/2/32
f 17/73/10 4/2/10 60/75/10
f 20/16/10 29/41/10 17/17/10
f 39/39/10 54/61/10 58/65/10
f 58/65/10 43/47/10 50/55/10
f 35/38/10 43/47/10 45/49/10
f 47/51/14 35/38/14 45/49/14
f 36/36/14 57/64/14 48/53/14
f 48/53/14 24/68/14 59/70/14
f 59/70/14 23/20/14 32/81/14
f 8/6/33 23/78/33 63/79/33
f 2/1/34 3/5/34 4/2/34
f 5/4/2 6/7/2 3/5/2
f 5/4/35 7/31/35 8/6/35
f 9/8/4 10/82/4 11/9/4
f 13/11/4 9/8/4 12/10/4
f 15/13/4 13/11/4 14/12/4
f 18/15/36 19/19/36 20/16/36
f 21/18/37 22/21/37 19/19/37
f 23/20/38 24/68/38 22/21/38
f 9/22/8 2/1/8 1/3/8
f 26/24/9 27/74/9 28/25/9
f 29/27/10 10/23/10 1/3/10
f 9/22/11 13/30/11 5/4/11
f 30/28/9 25/26/9 28/25/9
f 13/30/39 15/33/39 7/31/39
f 32/32/40 8/6/40 7/31/40
f 33/34/9 30/28/9 31/29/9
f 36/36/14 37/52/14 38/37/14
f 39/39/10 11/69/10 10/40/10
f 37/52/14 36/36/14 48/53/14
f 50/55/10 35/38/10 38/37/10
f 52/57/4 41/43/4 40/42/4
f 53/59/4 51/58/4 40/42/4
f 49/60/4 53/59/4 42/45/4
f 54/61/41 55/63/41 44/48/41
f 56/62/42 46/50/42 44/48/42
f 57/64/43 47/51/43 46/50/43
f 58/65/10 50/55/10 41/56/10
f 48/53/14 59/70/14 16/67/14
f 11/9/4 52/57/4 51/58/4
f 14/12/4 12/10/4 51/58/4
f 16/14/4 14/12/4 53/59/4
f 20/16/44 19/19/44 55/63/44
f 22/21/45 56/62/45 55/63/45
f 24/68/46 57/64/46 56/62/46
f 39/39/10 58/65/10 52/66/10
f 59/70/14 32/81/14 15/71/14
f 18/72/47 17/73/47 26/24/47
f 17/73/10 60/75/10 27/74/10
f 60/75/48 61/77/48 28/25/48
f 18/72/26 25/26/26 30/28/26
f 61/77/49 62/80/49 31/29/49
f 21/76/50 30/28/50 33/34/50
f 63/79/51 34/35/51 31/29/51
f 23/78/52 33/34/52 34/35/52
f 6/7/53 8/6/53 63/79/53
f 3/5/31 6/7/31 62/80/31
f 3/5/54 61/77/54 60/75/54
f 17/73/10 29/27/10 4/2/10
f 20/16/10 39/39/10 29/41/10
f 39/39/10 20/16/10 54/61/10
f 58/65/10 54/61/10 43/47/10
f 35/38/10 50/55/10 43/47/10
f 47/51/14 36/36/14 35/38/14
f 36/36/14 47/51/14 57/64/14
f 48/53/14 57/64/14 24/68/14
f 59/70/14 24/68/14 23/20/14
f 8/6/55 32/32/55 23/78/55
